<svg width="1487" height="1024" viewBox="0 0 1487 1024" fill="none" xmlns="http://www.w3.org/2000/svg">
<path d="M48.1173 273.5C92.284 260.333 199.817 241.9 276.617 273.5C372.617 313 827.117 535.5 940.117 555.5C1053.12 575.5 1446.12 674 1462.62 699.5C1475.82 719.9 1481.12 740 1482.12 747.5V1018.5H799.117C766.951 1010 617.417 934.3 276.617 699.5C157.741 617.598 85.7412 568.114 45.1306 540.314L45.1173 541.5C2.8988 512.088 -30.6834 488.415 45.1306 540.314L48.1173 273.5Z" fill="#62929A" fill-opacity="0.5"/>
<path d="M627.117 571.5C455.117 195.1 167.117 62 44.6173 42.5V0H1485.62V1023.5H1017.62C959.117 1029.67 799.117 947.9 627.117 571.5Z" fill="#EFECEC" fill-opacity="0.5"/>
<path d="M965.117 455.5C771.917 436.3 272.951 640.5 47.6173 745V1021H1486.12V358.5C1392.95 398.833 1158.32 474.7 965.117 455.5Z" fill="#363434" fill-opacity="0.5"/>
</svg>
